<svg xmlns="http://www.w3.org/2000/svg" style="display:none"><symbol id="icon-bars" viewBox="0 0 24 28"><path d="M24 21v2q0 .406-.297.703T23 24H1q-.406 0-.703-.297T0 23v-2q0-.406.297-.703T1 20h22q.406 0 .703.297T24 21zm0-8v2q0 .406-.297.703T23 16H1q-.406 0-.703-.297T0 15v-2q0-.406.297-.703T1 12h22q.406 0 .703.297T24 13zm0-8v2q0 .406-.297.703T23 8H1q-.406 0-.703-.297T0 7V5q0-.406.297-.703T1 4h22q.406 0 .703.297T24 5z"/></symbol><symbol id="icon-check" viewBox="0 0 25 25"><g fill-rule="evenodd"><circle cx="12.5" cy="12.5" r="12.5"/><path fill-rule="nonzero" d="M18.008 7.342l-7.341 7.342-2.676-2.675a1.167 1.167 0 0 0-1.65 1.65l3.5 3.5a1.167 1.167 0 0 0 1.65 0l8.167-8.167a1.167 1.167 0 0 0-1.65-1.65z"/></g></symbol><symbol id="icon-facebook" viewBox="0 0 16 28"><path d="M14.984.187v4.125h-2.453q-1.344 0-1.813.562t-.469 1.687v2.953h4.578l-.609 4.625h-3.969v11.859H5.468V14.139H1.484V9.514h3.984V6.108q0-2.906 1.625-4.508t4.328-1.602q2.297 0 3.563.187z"/></symbol><symbol id="icon-github" viewBox="0 0 24 24"><path fill-rule="evenodd" d="M12 .3C5.4.3 0 5.7 0 12.3c0 5.3 3.4 9.8 8.2 11.4.6.1.8-.3.8-.6v-2c-3.3.7-4-1.6-4-1.6-.5-1.4-1.3-1.8-1.3-1.8-1.2-.7 0-.7 0-.7 1.2.1 1.8 1.2 1.8 1.2 1.1 1.8 2.8 1.3 3.5 1 .1-.8.4-1.3.8-1.6-2.7-.3-5.5-1.3-5.5-5.9 0-1.3.5-2.4 1.2-3.2 0-.4-.5-1.6.2-3.2 0 0 1-.3 3.3 1.2 1-.3 2-.4 3-.4s2 .1 3 .4c2.3-1.6 3.3-1.2 3.3-1.2.7 1.7.2 2.9.1 3.2.8.8 1.2 1.9 1.2 3.2 0 4.6-2.8 5.6-5.5 5.9.4.4.8 1.1.8 2.2v3.3c0 .3.2.7.8.6 4.8-1.6 8.2-6.1 8.2-11.4C24 5.7 18.6.3 12 .3z"/></symbol><symbol id="icon-twitter-btn" viewBox="0 0 24 20"><path d="M24 2.6c-.9.4-1.8.7-2.8.8 1-.6 1.8-1.6 2.2-2.7-1 .6-2 1-3.1 1.2-.9-1-2.2-1.6-3.6-1.6-2.7 0-4.9 2.2-4.9 4.9 0 .4 0 .8.1 1.1-4.2-.2-7.8-2.2-10.2-5.2-.5.8-.7 1.6-.7 2.5 0 1.7.9 3.2 2.2 4.1-.8 0-1.6-.2-2.2-.6v.1c0 2.4 1.7 4.4 3.9 4.8-.4.1-.8.2-1.3.2-.3 0-.6 0-.9-.1.6 2 2.4 3.4 4.6 3.4-1.7 1.3-3.8 2.1-6.1 2.1-.4 0-.8 0-1.2-.1 2.2 1.4 4.8 2.2 7.5 2.2 9.1 0 14-7.5 14-14v-.6c1-.7 1.8-1.6 2.5-2.5z"/></symbol><symbol id="icon-twitter" viewBox="0 0 26 28"><path d="M25.312 6.375q-1.047 1.531-2.531 2.609.016.219.016.656 0 2.031-.594 4.055t-1.805 3.883-2.883 3.289-4.031 2.281T8.437 24q-4.234 0-7.75-2.266.547.063 1.219.063 3.516 0 6.266-2.156-1.641-.031-2.938-1.008t-1.781-2.492q.516.078.953.078.672 0 1.328-.172-1.75-.359-2.898-1.742t-1.148-3.211v-.063q1.062.594 2.281.641-1.031-.688-1.641-1.797t-.609-2.406q0-1.375.688-2.547Q4.298 7.25 7.009 8.649t5.805 1.555q-.125-.594-.125-1.156 0-2.094 1.477-3.57t3.57-1.477q2.188 0 3.687 1.594 1.703-.328 3.203-1.219-.578 1.797-2.219 2.781 1.453-.156 2.906-.781z"/></symbol></svg>